<svg width="123" height="24" viewBox="0 0 123 24" fill="none" xmlns="http://www.w3.org/2000/svg">
<path d="M13.4496 17.7465C13.1141 19.0986 11.7722 20.9577 9.08829 20.9577C6.23667 20.9577 4.05602 18.7606 4.05602 15.2113C4.05602 11.662 6.23667 9.46479 9.08829 9.46479C11.6044 9.46479 12.9464 10.9859 13.4496 12.507H16.8044C16.3012 10.1408 14.1206 6.42253 9.08829 6.42253C4.22376 6.42253 0.701172 9.97183 0.701172 15.2113C0.701172 20.4507 4.22376 24 9.08829 24C14.1206 24 16.3012 20.2817 16.8044 17.7465H13.4496Z" fill="black"/>
<path d="M31.052 23.662H33.9037V12.8451C33.9037 8.95775 31.3875 6.42253 27.0262 6.42253C22.8327 6.42253 20.3165 8.78873 20.1488 11.662H23.5036C23.6714 10.6479 24.6778 9.29578 27.0262 9.29578C29.2069 9.29578 30.5488 10.6479 30.5488 12.8451V13.1831H26.3553C21.6585 13.1831 19.4778 15.3803 19.4778 18.7606C19.4778 21.8028 21.8262 24 25.5166 24C29.0391 24 30.5488 21.8028 30.5488 21.8028H30.7166L31.052 23.662ZM30.5488 16.5634C30.5488 19.4366 28.8714 21.1268 25.852 21.1268C23.8391 21.1268 22.8327 20.1127 22.8327 18.5916C22.8327 17.0704 24.0069 15.8873 26.523 15.8873H30.5488V16.5634Z" fill="black"/>
<path d="M38.1025 23.662H41.4573V13.3183C41.4573 10.9859 42.6315 9.80282 44.9799 9.80282H47.6638V6.76056H44.6444C42.6315 6.76056 41.9605 7.60563 41.4573 8.28169H41.2896L40.9541 6.76056H38.1025V23.662Z" fill="black"/>
<path d="M62.1171 23.662H65.1365V0H61.7817V8.78873H61.6139C61.1107 8.11268 59.601 6.42253 56.4139 6.42253C52.0526 6.42253 48.6978 9.80282 48.6978 15.2113C48.6978 20.6197 52.0526 24 56.4139 24C59.601 24 61.1107 22.3099 61.6139 21.6338H61.7817L62.1171 23.662ZM56.9171 20.9577C54.2333 20.9577 52.0526 18.7606 52.0526 15.2113C52.0526 11.662 54.2333 9.46479 56.9171 9.46479C59.601 9.46479 61.7817 11.662 61.7817 15.2113C61.7817 18.7606 59.601 20.9577 56.9171 20.9577Z" fill="black"/>
<path d="M69.8202 23.662H72.8395L73.175 21.6338H73.3428C73.846 22.3099 75.3557 24 78.5428 24C82.9041 24 86.2589 20.6197 86.2589 15.2113C86.2589 9.80282 82.9041 6.42253 78.5428 6.42253C75.3557 6.42253 73.846 8.11268 73.3428 8.78873H73.175V0H69.8202V23.662ZM78.0396 20.9577C75.3557 20.9577 73.175 18.7606 73.175 15.2113C73.175 11.662 75.3557 9.46479 78.0396 9.46479C80.7234 9.46479 82.9041 11.662 82.9041 15.2113C82.9041 18.7606 80.7234 20.9577 78.0396 20.9577Z" fill="black"/>
<path d="M97.3168 20.9577C94.4652 20.9577 92.2845 18.7606 92.2845 15.2113C92.2845 11.662 94.4652 9.46479 97.3168 9.46479C100.168 9.46479 102.349 11.662 102.349 15.2113C102.349 18.7606 100.168 20.9577 97.3168 20.9577ZM97.3168 24C102.181 24 105.704 20.4507 105.704 15.2113C105.704 9.97183 102.181 6.42253 97.3168 6.42253C92.4523 6.42253 88.9297 9.97183 88.9297 15.2113C88.9297 20.4507 92.4523 24 97.3168 24Z" fill="black"/>
<path d="M106.561 23.662H110.419L114.445 17.4085H115.116L119.142 23.662H123L117.297 14.8732L122.832 6.76056H118.974L115.116 12.507H114.445L110.587 6.76056H106.729L112.264 14.8732L106.561 23.662Z" fill="black"/>
</svg>
