<svg width="1920" height="115" viewBox="0 0 1920 115" fill="none" xmlns="http://www.w3.org/2000/svg">
  <path d="M84.3589 0H105.434L-9.58625 114.431H-31L84.3589 0Z" fill="#F7F6FF"/>
  <path d="M210.359 0H231.434L116.414 114.431H95L210.359 0Z" fill="#F7F6FF"/>
  <path d="M336.359 0H357.434L242.414 114.431H221L336.359 0Z" fill="#F7F6FF"/>
  <path d="M462.359 0H483.434L368.414 114.431H347L462.359 0Z" fill="#F7F6FF"/>
  <path d="M588.359 0H609.434L494.414 114.431H473L588.359 0Z" fill="#F7F6FF"/>
  <path d="M714.359 0H735.434L620.414 114.431H599L714.359 0Z" fill="#F7F6FF"/>
  <path d="M840.359 0H861.434L746.414 114.431H725L840.359 0Z" fill="#F7F6FF"/>
  <path d="M966.359 0H987.434L872.414 114.431H851L966.359 0Z" fill="#F7F6FF"/>
  <path d="M1092.36 0H1113.43L998.414 114.431H977L1092.36 0Z" fill="#F7F6FF"/>
  <path d="M1218.36 0H1239.43L1124.41 114.431H1103L1218.36 0Z" fill="#F7F6FF"/>
  <path d="M1344.36 0H1365.43L1250.41 114.431H1229L1344.36 0Z" fill="#F7F6FF"/>
  <path d="M1470.36 0H1491.43L1376.41 114.431H1355L1470.36 0Z" fill="#F7F6FF"/>
  <path d="M1596.36 0H1617.43L1502.41 114.431H1481L1596.36 0Z" fill="#F7F6FF"/>
  <path d="M1722.36 0H1743.43L1628.41 114.431H1607L1722.36 0Z" fill="#F7F6FF"/>
  <path d="M1848.36 0H1869.43L1754.41 114.431H1733L1848.36 0Z" fill="#F7F6FF"/>
  <path d="M1974.36 0H1995.43L1880.41 114.431H1859L1974.36 0Z" fill="#F7F6FF"/>
  <path d="M42.3589 0H63.434L-51.5862 114.431H-73L42.3589 0Z" fill="#F7F6FF"/>
  <path d="M168.359 0H189.434L74.4138 114.431H53L168.359 0Z" fill="#F7F6FF"/>
  <path d="M294.359 0H315.434L200.414 114.431H179L294.359 0Z" fill="#F7F6FF"/>
  <path d="M420.359 0H441.434L326.414 114.431H305L420.359 0Z" fill="#F7F6FF"/>
  <path d="M546.359 0H567.434L452.414 114.431H431L546.359 0Z" fill="#F7F6FF"/>
  <path d="M672.359 0H693.434L578.414 114.431H557L672.359 0Z" fill="#F7F6FF"/>
  <path d="M798.359 0H819.434L704.414 114.431H683L798.359 0Z" fill="#F7F6FF"/>
  <path d="M924.359 0H945.434L830.414 114.431H809L924.359 0Z" fill="#F7F6FF"/>
  <path d="M1050.36 0H1071.43L956.414 114.431H935L1050.36 0Z" fill="#F7F6FF"/>
  <path d="M1176.36 0H1197.43L1082.41 114.431H1061L1176.36 0Z" fill="#F7F6FF"/>
  <path d="M1302.36 0H1323.43L1208.41 114.431H1187L1302.36 0Z" fill="#F7F6FF"/>
  <path d="M1428.36 0H1449.43L1334.41 114.431H1313L1428.36 0Z" fill="#F7F6FF"/>
  <path d="M1554.36 0H1575.43L1460.41 114.431H1439L1554.36 0Z" fill="#F7F6FF"/>
  <path d="M1680.36 0H1701.43L1586.41 114.431H1565L1680.36 0Z" fill="#F7F6FF"/>
  <path d="M1806.36 0H1827.43L1712.41 114.431H1691L1806.36 0Z" fill="#F7F6FF"/>
  <path d="M1932.36 0H1953.43L1838.41 114.431H1817L1932.36 0Z" fill="#F7F6FF"/>
  <path d="M2016.36 0H2037.43L1922.41 114.431H1901L2016.36 0Z" fill="#F7F6FF"/>
  <path d="M0.358871 0H21.434L-93.5862 114.431H-115L0.358871 0Z" fill="#F7F6FF"/>
  <path d="M126.359 0H147.434L32.4138 114.431H11L126.359 0Z" fill="#F7F6FF"/>
  <path d="M252.359 0H273.434L158.414 114.431H137L252.359 0Z" fill="#F7F6FF"/>
  <path d="M378.359 0H399.434L284.414 114.431H263L378.359 0Z" fill="#F7F6FF"/>
  <path d="M504.359 0H525.434L410.414 114.431H389L504.359 0Z" fill="#F7F6FF"/>
  <path d="M630.359 0H651.434L536.414 114.431H515L630.359 0Z" fill="#F7F6FF"/>
  <path d="M756.359 0H777.434L662.414 114.431H641L756.359 0Z" fill="#F7F6FF"/>
  <path d="M882.359 0H903.434L788.414 114.431H767L882.359 0Z" fill="#F7F6FF"/>
  <path d="M1008.36 0H1029.43L914.414 114.431H893L1008.36 0Z" fill="#F7F6FF"/>
  <path d="M1134.36 0H1155.43L1040.41 114.431H1019L1134.36 0Z" fill="#F7F6FF"/>
  <path d="M1260.36 0H1281.43L1166.41 114.431H1145L1260.36 0Z" fill="#F7F6FF"/>
  <path d="M1386.36 0H1407.43L1292.41 114.431H1271L1386.36 0Z" fill="#F7F6FF"/>
  <path d="M1512.36 0H1533.43L1418.41 114.431H1397L1512.36 0Z" fill="#F7F6FF"/>
  <path d="M1638.36 0H1659.43L1544.41 114.431H1523L1638.36 0Z" fill="#F7F6FF"/>
  <path d="M1764.36 0H1785.43L1670.41 114.431H1649L1764.36 0Z" fill="#F7F6FF"/>
  <path d="M1890.36 0H1911.43L1796.41 114.431H1775L1890.36 0Z" fill="#F7F6FF"/>
  <rect y="33" width="1920" height="82" fill="url(#paint0_linear)"/>
  <defs>
    <linearGradient id="paint0_linear" x1="960" y1="33" x2="960" y2="115" gradientUnits="userSpaceOnUse">
      <stop stop-color="white" stop-opacity="0"/>
      <stop offset="1" stop-color="white"/>
    </linearGradient>
  </defs>
</svg>
