<svg width="120" height="21" viewBox="0 0 120 21" fill="none" xmlns="http://www.w3.org/2000/svg">
<path d="M15.8347 13.4167C15.2257 15.1667 13.5509 17.3542 10.3535 17.3542C6.69931 17.3542 3.95868 14.7292 3.95868 10.5C3.95868 6.27083 6.69931 3.64583 10.3535 3.64583C13.5509 3.64583 15.2257 5.83333 15.8347 7.4375H19.9457C19.3366 4.66667 16.596 0 10.3535 0C4.56771 0 0 4.375 0 10.5C0 16.625 4.56771 21 10.3535 21C17.0528 21 19.4889 15.75 19.9457 13.4167H15.8347Z" fill="black"/>
<path d="M32.746 20.7083H35.9434V11.2292C35.9434 8.02083 33.355 5.54167 29.3963 5.54167C25.2854 5.54167 23.1538 7.875 22.8493 10.3542H26.6557C26.808 9.47917 27.7215 8.45833 29.3963 8.45833C31.0711 8.45833 32.137 9.625 32.137 11.2292V11.5208H28.635C24.3718 11.5208 22.2402 13.5625 22.2402 16.4792C22.2402 18.9583 24.3718 21 27.8738 21C30.9189 21 32.2892 19.25 32.2892 19.25H32.4415L32.746 20.7083ZM32.137 14.7292C32.137 16.7708 30.7666 18.0833 28.4828 18.0833C26.9602 18.0833 26.0467 17.3542 26.0467 16.1875C26.0467 15.0208 26.9602 14.2917 28.9396 14.2917H32.137V14.7292Z" fill="black"/>
<path d="M39.7439 20.7083H43.5503V12.1042C43.5503 10.2083 44.4638 9.33333 46.4432 9.33333H49.1838V5.83333H46.1387C44.3116 5.83333 43.398 7.14583 43.398 7.14583H43.2458L42.9413 5.83333H39.7439V20.7083Z" fill="black"/>
<path d="M57.8696 17.6458C55.5857 17.6458 53.9109 16.0417 53.9109 13.2708C53.9109 10.5 55.5857 8.89583 57.8696 8.89583C60.1534 8.89583 61.8283 10.5 61.8283 13.2708C61.8283 16.0417 60.1534 17.6458 57.8696 17.6458ZM62.285 20.7083H65.6347V0.291666H61.8283V7.4375H61.676C61.676 7.4375 60.3057 5.54167 57.2606 5.54167C53.3019 5.54167 50.1045 8.60417 50.1045 13.2708C50.1045 17.9375 53.3019 21 57.2606 21C60.458 21 61.8283 19.1042 61.8283 19.1042H61.9805L62.285 20.7083Z" fill="black"/>
<path d="M77.6666 17.6458C75.3827 17.6458 73.7079 16.0417 73.7079 13.2708C73.7079 10.5 75.3827 8.89583 77.6666 8.89583C79.9504 8.89583 81.6253 10.5 81.6253 13.2708C81.6253 16.0417 79.9504 17.6458 77.6666 17.6458ZM69.9015 20.7083H73.2511L73.5556 19.1042H73.7079C73.7079 19.1042 75.0782 21 78.2756 21C82.2343 21 85.4317 17.9375 85.4317 13.2708C85.4317 8.60417 82.2343 5.54167 78.2756 5.54167C75.2305 5.54167 73.8601 7.4375 73.8601 7.4375H73.7079V0.291666H69.9015V20.7083Z" fill="black"/>
<path d="M95.7887 17.6458C93.5049 17.6458 91.6778 15.8958 91.6778 13.2708C91.6778 10.6458 93.5049 8.89583 95.7887 8.89583C98.0726 8.89583 99.8997 10.6458 99.8997 13.2708C99.8997 15.8958 98.0726 17.6458 95.7887 17.6458ZM95.7887 5.54167C91.221 5.54167 87.8714 8.75 87.8714 13.2708C87.8714 17.7917 91.221 21 95.7887 21C100.356 21 103.706 17.7917 103.706 13.2708C103.706 8.75 100.356 5.54167 95.7887 5.54167Z" fill="black"/>
<path d="M104.165 20.7083H108.428L111.778 15.75H112.387L115.737 20.7083H120L114.823 13.125L119.848 5.83333H115.585L112.387 10.5H111.778L108.581 5.83333H104.318L109.342 13.125L104.165 20.7083Z" fill="black"/>
</svg>
